<mxfile host="app.diagrams.net" modified="2021-07-22T19:42:49.766Z" agent="5.0 (Macintosh; Intel Mac OS X 10_15_7) AppleWebKit/537.36 (KHTML, like Gecko) Chrome/91.0.4472.114 Safari/537.36" etag="spVr9F7N4Gc30XrNr6v2" version="14.9.1" type="github">
  <diagram id="C5RBs43oDa-KdzZeNtuy" name="Page-1">
    <mxGraphModel dx="1199" dy="640" grid="1" gridSize="10" guides="1" tooltips="1" connect="1" arrows="1" fold="1" page="1" pageScale="1" pageWidth="827" pageHeight="1169" math="0" shadow="0">
      <root>
        <mxCell id="WIyWlLk6GJQsqaUBKTNV-0" />
        <mxCell id="WIyWlLk6GJQsqaUBKTNV-1" parent="WIyWlLk6GJQsqaUBKTNV-0" />
        <mxCell id="_f_mBEI5mizr--NLBWn3-20" style="edgeStyle=orthogonalEdgeStyle;rounded=0;orthogonalLoop=1;jettySize=auto;html=1;exitX=0.5;exitY=1;exitDx=0;exitDy=0;entryX=0.176;entryY=-0.005;entryDx=0;entryDy=0;entryPerimeter=0;endArrow=ERmany;endFill=0;startArrow=ERone;startFill=0;endSize=16;startSize=15;" edge="1" parent="WIyWlLk6GJQsqaUBKTNV-1" source="zkfFHV4jXpPFQw0GAbJ--0" target="_f_mBEI5mizr--NLBWn3-0">
          <mxGeometry relative="1" as="geometry" />
        </mxCell>
        <mxCell id="zkfFHV4jXpPFQw0GAbJ--0" value="User" style="swimlane;fontStyle=2;align=center;verticalAlign=top;childLayout=stackLayout;horizontal=1;startSize=26;horizontalStack=0;resizeParent=1;resizeLast=0;collapsible=1;marginBottom=0;rounded=0;shadow=0;strokeWidth=1;" parent="WIyWlLk6GJQsqaUBKTNV-1" vertex="1">
          <mxGeometry x="220" y="120" width="160" height="138" as="geometry">
            <mxRectangle x="230" y="140" width="160" height="26" as="alternateBounds" />
          </mxGeometry>
        </mxCell>
        <mxCell id="zkfFHV4jXpPFQw0GAbJ--1" value="id" style="text;align=left;verticalAlign=top;spacingLeft=4;spacingRight=4;overflow=hidden;rotatable=0;points=[[0,0.5],[1,0.5]];portConstraint=eastwest;" parent="zkfFHV4jXpPFQw0GAbJ--0" vertex="1">
          <mxGeometry y="26" width="160" height="26" as="geometry" />
        </mxCell>
        <mxCell id="zkfFHV4jXpPFQw0GAbJ--2" value="username" style="text;align=left;verticalAlign=top;spacingLeft=4;spacingRight=4;overflow=hidden;rotatable=0;points=[[0,0.5],[1,0.5]];portConstraint=eastwest;rounded=0;shadow=0;html=0;" parent="zkfFHV4jXpPFQw0GAbJ--0" vertex="1">
          <mxGeometry y="52" width="160" height="26" as="geometry" />
        </mxCell>
        <mxCell id="zkfFHV4jXpPFQw0GAbJ--3" value="email" style="text;align=left;verticalAlign=top;spacingLeft=4;spacingRight=4;overflow=hidden;rotatable=0;points=[[0,0.5],[1,0.5]];portConstraint=eastwest;rounded=0;shadow=0;html=0;" parent="zkfFHV4jXpPFQw0GAbJ--0" vertex="1">
          <mxGeometry y="78" width="160" height="26" as="geometry" />
        </mxCell>
        <mxCell id="zkfFHV4jXpPFQw0GAbJ--5" value="pasword_digest" style="text;align=left;verticalAlign=top;spacingLeft=4;spacingRight=4;overflow=hidden;rotatable=0;points=[[0,0.5],[1,0.5]];portConstraint=eastwest;" parent="zkfFHV4jXpPFQw0GAbJ--0" vertex="1">
          <mxGeometry y="104" width="160" height="26" as="geometry" />
        </mxCell>
        <mxCell id="_f_mBEI5mizr--NLBWn3-0" value="comment" style="swimlane;fontStyle=0" vertex="1" parent="WIyWlLk6GJQsqaUBKTNV-1">
          <mxGeometry x="329" y="370" width="170" height="190" as="geometry" />
        </mxCell>
        <mxCell id="_f_mBEI5mizr--NLBWn3-4" value="content&amp;nbsp;" style="text;html=1;align=left;verticalAlign=middle;resizable=0;points=[];autosize=1;strokeColor=none;" vertex="1" parent="_f_mBEI5mizr--NLBWn3-0">
          <mxGeometry x="15" y="50" width="60" height="20" as="geometry" />
        </mxCell>
        <mxCell id="_f_mBEI5mizr--NLBWn3-1" value="Id&amp;nbsp;" style="text;html=1;align=left;verticalAlign=middle;resizable=0;points=[];autosize=1;strokeColor=none;" vertex="1" parent="_f_mBEI5mizr--NLBWn3-0">
          <mxGeometry x="15" y="30" width="30" height="20" as="geometry" />
        </mxCell>
        <mxCell id="_f_mBEI5mizr--NLBWn3-5" value="user_id" style="text;html=1;align=left;verticalAlign=middle;resizable=0;points=[];autosize=1;strokeColor=none;" vertex="1" parent="_f_mBEI5mizr--NLBWn3-0">
          <mxGeometry x="15" y="70" width="50" height="20" as="geometry" />
        </mxCell>
        <mxCell id="_f_mBEI5mizr--NLBWn3-6" value="post_id" style="text;html=1;align=left;verticalAlign=middle;resizable=0;points=[];autosize=1;strokeColor=none;" vertex="1" parent="_f_mBEI5mizr--NLBWn3-0">
          <mxGeometry x="15" y="90" width="50" height="20" as="geometry" />
        </mxCell>
        <mxCell id="_f_mBEI5mizr--NLBWn3-7" value="comment_id" style="text;html=1;align=left;verticalAlign=middle;resizable=0;points=[];autosize=1;strokeColor=none;" vertex="1" parent="_f_mBEI5mizr--NLBWn3-0">
          <mxGeometry x="15" y="110" width="80" height="20" as="geometry" />
        </mxCell>
        <mxCell id="_f_mBEI5mizr--NLBWn3-8" value="created_at" style="text;html=1;align=left;verticalAlign=middle;resizable=0;points=[];autosize=1;strokeColor=none;" vertex="1" parent="_f_mBEI5mizr--NLBWn3-0">
          <mxGeometry x="15" y="130" width="70" height="20" as="geometry" />
        </mxCell>
        <mxCell id="_f_mBEI5mizr--NLBWn3-9" value="updated_at" style="text;html=1;align=left;verticalAlign=middle;resizable=0;points=[];autosize=1;strokeColor=none;" vertex="1" parent="_f_mBEI5mizr--NLBWn3-0">
          <mxGeometry x="15" y="150" width="80" height="20" as="geometry" />
        </mxCell>
        <mxCell id="_f_mBEI5mizr--NLBWn3-21" style="edgeStyle=orthogonalEdgeStyle;rounded=0;orthogonalLoop=1;jettySize=auto;html=1;entryX=1;entryY=0.5;entryDx=0;entryDy=0;startArrow=ERone;startFill=0;endArrow=ERmany;endFill=0;startSize=15;endSize=16;" edge="1" parent="WIyWlLk6GJQsqaUBKTNV-1" source="_f_mBEI5mizr--NLBWn3-10" target="_f_mBEI5mizr--NLBWn3-0">
          <mxGeometry relative="1" as="geometry" />
        </mxCell>
        <mxCell id="_f_mBEI5mizr--NLBWn3-10" value="Post" style="swimlane;fontStyle=0" vertex="1" parent="WIyWlLk6GJQsqaUBKTNV-1">
          <mxGeometry x="480" y="120" width="180" height="220" as="geometry" />
        </mxCell>
        <mxCell id="_f_mBEI5mizr--NLBWn3-16" value="thumbnail_url" style="text;html=1;align=left;verticalAlign=middle;resizable=0;points=[];autosize=1;strokeColor=none;" vertex="1" parent="_f_mBEI5mizr--NLBWn3-10">
          <mxGeometry x="15" y="130" width="90" height="20" as="geometry" />
        </mxCell>
        <mxCell id="_f_mBEI5mizr--NLBWn3-12" value="title" style="text;html=1;align=left;verticalAlign=middle;resizable=0;points=[];autosize=1;strokeColor=none;" vertex="1" parent="_f_mBEI5mizr--NLBWn3-10">
          <mxGeometry x="15" y="50" width="30" height="20" as="geometry" />
        </mxCell>
        <mxCell id="_f_mBEI5mizr--NLBWn3-11" value="id" style="text;html=1;align=left;verticalAlign=middle;resizable=0;points=[];autosize=1;strokeColor=none;" vertex="1" parent="_f_mBEI5mizr--NLBWn3-10">
          <mxGeometry x="15" y="30" width="20" height="20" as="geometry" />
        </mxCell>
        <mxCell id="_f_mBEI5mizr--NLBWn3-13" value="author" style="text;html=1;align=left;verticalAlign=middle;resizable=0;points=[];autosize=1;strokeColor=none;" vertex="1" parent="_f_mBEI5mizr--NLBWn3-10">
          <mxGeometry x="15" y="70" width="50" height="20" as="geometry" />
        </mxCell>
        <mxCell id="_f_mBEI5mizr--NLBWn3-14" value="content" style="text;html=1;align=left;verticalAlign=middle;resizable=0;points=[];autosize=1;strokeColor=none;" vertex="1" parent="_f_mBEI5mizr--NLBWn3-10">
          <mxGeometry x="15" y="90" width="50" height="20" as="geometry" />
        </mxCell>
        <mxCell id="_f_mBEI5mizr--NLBWn3-15" value="main_img_url" style="text;html=1;align=left;verticalAlign=middle;resizable=0;points=[];autosize=1;strokeColor=none;" vertex="1" parent="_f_mBEI5mizr--NLBWn3-10">
          <mxGeometry x="15" y="110" width="90" height="20" as="geometry" />
        </mxCell>
        <mxCell id="_f_mBEI5mizr--NLBWn3-17" value="created_at" style="text;html=1;align=left;verticalAlign=middle;resizable=0;points=[];autosize=1;strokeColor=none;" vertex="1" parent="_f_mBEI5mizr--NLBWn3-10">
          <mxGeometry x="15" y="170" width="70" height="20" as="geometry" />
        </mxCell>
        <mxCell id="_f_mBEI5mizr--NLBWn3-18" value="updated_at" style="text;html=1;align=left;verticalAlign=middle;resizable=0;points=[];autosize=1;strokeColor=none;" vertex="1" parent="_f_mBEI5mizr--NLBWn3-10">
          <mxGeometry x="15" y="190" width="80" height="20" as="geometry" />
        </mxCell>
        <mxCell id="_f_mBEI5mizr--NLBWn3-19" value="post_type" style="text;html=1;align=left;verticalAlign=middle;resizable=0;points=[];autosize=1;strokeColor=none;" vertex="1" parent="_f_mBEI5mizr--NLBWn3-10">
          <mxGeometry x="15" y="150" width="70" height="20" as="geometry" />
        </mxCell>
      </root>
    </mxGraphModel>
  </diagram>
</mxfile>
